PathFileType	4	(X/Y/Z)	OpenSim_Sub08_EMGStiffKnee_Accel.trc
DataRate	CameraRate	NumFrames	NumMarkers	Units	OrigDataRate	OrigDataStartFrame	OrigNumFrames
100	100	31	8	m	100	3151	6301
Frame#	Time	torso_imu_offset_imu	pelvis_imu_offset_imu	tibia_r_imu_offset_imu	femur_r_imu_offset_imu	tibia_l_imu_offset_imu	femur_l_imu_offset_imu	toes_r_imu_offset_imu	toes_l_imu_offset_imu
				X1	Y1	Z1	X2	Y2	Z2	X3	Y3	Z3	X4	Y4	Z4	X5	Y5	Z5	X6	Y6	Z6	X7	Y7	Z7	X8		Y8	Z8	

3151	31.50000000	9.59934242	0.13261035	5.80786951	10.12052472	-1.07487063	2.53748942	9.01059318	2.82396865	-0.03257293	8.48356317	-2.84504006	2.58935181	9.73335524	-2.39762017	-0.94645700	9.59467593	0.76681614	-1.97874998	8.58068277	-1.13340780	8.02508655	6.06365538	1.25553017	10.54081912
3152	31.51000000	9.58436508	0.13002912	5.90487455	10.14138622	-0.94458913	2.49987948	8.86246877	2.93762680	-0.14681771	8.56195980	-2.96941385	2.47350971	9.47290075	-2.57243227	-1.24726715	9.52037749	1.00550016	-2.08595080	6.97283186	-1.09341666	7.03962332	6.39478481	0.91714269	10.29130690
3153	31.52000000	9.56625282	0.14478859	5.96983442	10.06232533	-0.74712225	2.42663518	8.95357440	2.97280706	0.00279452	8.68778309	-3.13332278	2.53044220	9.60517130	-2.71106716	-1.12935431	9.50405389	1.12493890	-2.18157925	7.14639386	-0.60667967	6.66318308	6.47236136	0.70528211	10.14081383
3154	31.53000000	9.51031516	0.18895368	5.90437735	9.98243463	-0.50314272	2.38315442	8.90716757	2.73488369	0.07171855	8.82262826	-3.23664845	2.57074270	9.81304153	-2.89548823	-1.02293578	9.51501405	1.29412833	-2.26602293	6.85017540	-0.24727889	6.35914635	6.54727953	0.96026307	10.18710917
3155	31.54000000	9.45528333	0.15036065	5.97011043	9.84891851	-0.37225921	2.30334657	8.64155874	2.49134359	0.03022814	8.83480642	-3.39302668	2.75617572	9.87050706	-2.85456364	-0.93859945	9.62923839	1.47746503	-2.31078753	7.18290722	-0.00532880	6.15733772	5.90436831	0.78530733	10.56105118
3156	31.55000000	9.48485363	0.19345393	6.02964767	9.69542195	-0.30057905	2.22324614	8.40833116	2.37623206	-0.00369698	8.78344834	-3.57331244	2.72782152	10.03554294	-2.72120154	-0.83303505	9.65429378	1.53513785	-2.36037762	7.49157339	-0.15577358	5.79312395	6.23430169	0.69344412	10.31048309
3157	31.56000000	9.46062560	0.27684858	6.04701861	9.67129144	-0.28139374	2.11421554	8.28949699	2.11336339	-0.06875586	8.73299053	-3.85633970	2.48470628	9.75045177	-2.68700226	-0.72139977	9.63815278	1.50528679	-2.24008176	7.29534013	-0.08990196	5.34021639	6.42563531	0.69107375	10.18969030
3158	31.57000000	9.33853435	0.30283414	6.10937980	9.64339101	-0.28198449	2.06426529	8.34736941	1.86394246	-0.14586344	8.66247457	-4.07602987	2.43202962	9.79528207	-2.65852049	-0.83643275	9.66415563	1.50584204	-2.21572285	7.25159672	0.00407298	5.04725360	6.53455311	0.60473089	10.01064889
3159	31.58000000	9.34161550	0.39556316	6.23971198	9.67647457	-0.24172460	2.04098314	8.48464618	1.55482885	-0.25365278	8.67959687	-4.18817048	2.57923365	9.93364382	-2.47128292	-0.82166303	9.58703339	1.68093172	-2.11065295	7.42409181	-0.06207673	4.93839395	6.28697836	0.65532497	10.20711672
3160	31.59000000	9.35314347	0.39938676	6.16183991	9.77718619	-0.23504217	1.97754378	8.39272755	1.27135366	-0.49854761	8.67818721	-4.13069043	2.81670321	9.88758608	-2.11273337	-0.85013812	9.55616378	1.82172324	-2.01239342	7.01852074	-0.25319966	4.59211372	6.17638543	1.02325381	10.37006489
3161	31.60000000	9.24471357	0.47097124	6.16840508	9.83185975	-0.19938210	1.89301798	8.18651141	1.13346749	-0.38898145	8.55087903	-3.95334722	2.82785827	9.76105458	-2.03851045	-0.85056811	9.54791210	1.92303432	-1.92616657	6.95752133	-0.81255747	4.31205660	6.54700154	0.99059807	10.00338203
3162	31.61000000	9.26872463	0.53506411	6.22352221	9.77482720	-0.25418045	1.93438290	8.02418520	0.96443581	-0.23947237	8.45178464	-3.96920934	2.82024315	9.87229633	-2.23348548	-0.69081088	9.48928660	2.04211474	-1.86677045	7.73780826	-1.17361650	4.37397975	6.44894392	0.95890758	10.10363426
3163	31.62000000	9.29776046	0.59349234	6.13601298	9.70061259	-0.32151458	1.94904184	7.85646355	0.60148622	-0.14489307	8.25989560	-3.91761258	2.85925151	10.18581087	-2.13109387	-0.52833889	9.54067779	2.11139737	-1.82858202	7.64959891	-1.92000674	3.77865969	6.50351870	0.87344890	10.01548098
3164	31.63000000	9.24271175	0.66094848	6.16677832	9.52560680	-0.47916975	1.93113487	7.83330374	0.16112159	-0.33212344	8.10008352	-3.92973365	2.79068694	10.26645196	-2.07853062	-0.15482778	9.55246089	2.21463095	-1.78909890	7.09536776	-1.87182321	3.47688115	6.08612479	0.48334723	10.16355899
3165	31.64000000	9.09970338	0.71989213	6.18442406	9.39430641	-0.63481724	1.80180986	7.87601037	-0.31070846	-0.40352056	7.90998380	-4.07079954	2.68773927	10.25364817	-1.83400946	0.09806954	9.59475435	2.28780480	-1.69096030	7.90168639	-1.79040128	3.35801118	6.25809067	0.33466317	9.96099367
3166	31.65000000	9.03241137	0.79787150	6.13738958	9.19629848	-0.78939871	1.61208466	7.90817015	-0.81372414	-0.16019401	7.57499267	-4.33596973	2.56854055	10.21597000	-1.40360084	0.46316858	9.61075985	2.44514467	-1.71251375	7.39408438	-2.35420059	3.33536373	6.38077103	0.19860002	9.74979175
3167	31.66000000	8.99433978	0.74838222	6.12032253	9.00835517	-1.00825905	1.48556695	7.72126941	-1.00657018	-0.05641484	7.17178974	-4.57359814	2.46190789	10.38161571	-1.37378917	0.57467404	9.59118659	2.46257275	-1.63247531	5.25139920	-6.14135001	2.94955534	6.50258110	0.08942963	9.51152704
3168	31.67000000	8.87339282	0.74378681	6.04768980	8.97244779	-1.17318153	1.46059086	7.74318041	-1.23740628	-0.19223590	7.08045384	-4.84487889	2.59701405	10.42842501	-1.38235951	0.58499818	9.39336496	2.76905899	-1.47331598	6.69103111	-13.03695089	-5.01598325	6.17879251	0.40664373	9.97749349
3169	31.68000000	8.81436647	0.79617736	6.01970912	8.99010587	-1.18852540	1.56824570	8.37418313	-2.17412089	0.59697372	7.31914931	-5.18829940	2.67591155	10.40538366	-1.06093977	0.59149148	9.15218952	2.96196616	-1.38685179	2.32759004	0.98983036	6.25508023	6.39737986	0.53320555	9.81824703
3170	31.69000000	9.04676680	0.79383169	6.02515173	9.20936047	-0.99713159	1.74490920	9.42286360	-4.10788330	0.59606895	8.26651298	-5.51497734	2.67038290	10.37422921	-0.48117398	0.35590937	8.84063880	3.09953378	-1.46490214	3.65760859	3.83289385	12.91001411	6.71142829	0.64279449	9.56809995
3171	31.70000000	9.66268175	0.80380169	6.14988573	9.61953922	-0.40480544	2.21739260	12.36480024	-5.03989533	3.13585648	10.45172869	-5.67632866	2.36058746	10.50455198	0.29232069	0.23060643	8.75960581	3.15929799	-1.50955089	-1.55058557	-3.56732535	9.96940593	6.73817071	0.91408620	9.57892813
3172	31.71000000	10.60601446	0.71462719	6.26927637	10.23784582	0.43630356	3.04682098	15.16312565	-6.68566157	7.36712693	13.29887929	-5.68933597	1.68522285	11.20105127	0.90628897	0.25536468	9.07435148	3.07715548	-1.43117461	3.29934625	3.49815121	11.89630433	6.63277458	1.42961560	9.89592375
3173	31.72000000	11.11047448	0.60672205	6.42273925	11.28595523	1.43899620	3.77575824	15.74146140	-8.24585445	6.45878299	15.32231785	-4.94310626	1.42318597	11.89155486	1.12102476	0.69716954	9.45965460	2.76025710	-1.50644242	9.51650363	10.93953942	16.82396083	6.22255498	1.70079219	10.28112815
3174	31.73000000	11.38163394	0.42410689	6.53221341	12.41091590	2.51101029	4.37985489	15.61329136	-4.63916220	6.83488665	16.24546451	-3.87291613	2.20493381	12.46860639	1.09055246	1.30473406	9.72483075	2.53428856	-1.62108290	12.01766963	2.79419761	13.99121416	6.23137522	1.30570596	10.05249453
3175	31.74000000	11.87032936	0.21752069	6.59076532	13.22681212	3.40708307	5.10648371	14.79121468	-1.03830992	5.93134525	16.59871900	-3.34859215	3.15803716	13.00033298	0.60869647	2.09356987	9.86598054	2.45389669	-1.47243381	13.62337560	2.15964222	14.96403729	6.40248610	1.01646413	10.01289308
3176	31.75000000	12.33495014	-0.14010677	6.51032031	13.39784315	3.71961104	5.76369687	13.67135349	1.60013747	3.48244326	15.47142587	-3.37994434	3.50316884	13.81681567	0.12410773	3.21300094	10.08879554	2.07241355	-1.36635153	11.55111628	-4.22897704	10.34712197	6.13817545	0.61222485	9.96782564
3177	31.76000000	12.11161205	-0.62406887	6.32598261	12.42704401	2.64429359	5.93043282	11.59581604	3.82033032	0.89811905	12.57366857	-3.17483641	3.20329863	14.64476560	-0.46793516	4.05657910	10.22731138	1.67807148	-0.98452490	7.72910515	-0.69767178	10.03985431	6.67847711	0.30958017	10.80027855
3178	31.77000000	10.95104901	-1.11947176	6.12918596	10.66629013	0.57260519	5.75577246	9.16442894	4.10979792	-0.57763654	9.68985294	-1.79703687	2.75430946	15.18153177	0.01599871	2.97149132	10.14081590	1.24066710	-0.36507465	6.87584079	0.86267454	9.82663224	9.02174018	0.65652952	11.07487420
3179	31.78000000	9.83728313	-1.41292700	5.85082773	9.12029915	-1.65433157	5.42644423	7.40659894	3.67564980	-2.17107252	7.67472133	0.31398233	2.56133227	15.63870645	3.87554441	0.89477872	9.79076507	0.25320424	0.39044817	5.01340058	-0.30873679	9.11463525	11.67643797	2.33784719	11.62005836
3180	31.79000000	9.10616688	-1.29941130	5.57053897	8.08920813	-3.54271661	5.30392135	6.78225022	4.61435198	-3.55807963	6.43823644	2.53339242	2.27228110	15.72178097	7.01251746	-0.73188917	9.75756684	-0.78146597	0.98839564	8.08083018	-8.15570524	9.38971564	15.52194423	3.22883000	12.29217447
3181	31.80000000	8.44570234	-1.17522575	5.33050065	7.30332390	-4.82042133	5.58646740	7.43363541	5.15388730	-4.85085013	5.93124144	3.87362631	1.44928691	14.67212142	5.61780409	-2.67769584	10.18046795	-1.19935734	0.77500747	9.63585126	-16.26079496	3.34229841	18.38336739	2.28323273	12.19340058
